<?xml version="1.0" encoding="UTF-8" standalone="no"?><!DOCTYPE svg PUBLIC "-//W3C//DTD SVG 1.1//EN" "http://www.w3.org/Graphics/SVG/1.1/DTD/svg11.dtd"><svg width="100%" height="100%" viewBox="0 0 88 18" version="1.1" xmlns="http://www.w3.org/2000/svg" xmlns:xlink="http://www.w3.org/1999/xlink" xml:space="preserve" xmlns:serif="http://www.serif.com/" style="fill-rule:evenodd;clip-rule:evenodd;stroke-linejoin:round;stroke-miterlimit:1.41421;"><g id="logo"><g id="logo-bear"><path d="M11.901,4.335l2.152,-4.211c2.132,0.103 3.706,1.132 4.627,3.252c0,0 -2.434,1.847 -3.582,2.908l-3.197,-1.949Z" style="fill:#694314;"/><path d="M13.383,4.413l1.117,-2.444c0.683,0.011 1.352,0.412 2.002,1.407l-2.158,1.868l-0.961,-0.831Z" style="fill:#966e3d;"/><path d="M6.951,4.335l-2.152,-4.211c-2.132,0.103 -3.706,1.132 -4.627,3.252c0,0 2.434,1.847 3.582,2.908l3.197,-1.949Z" style="fill:#694314;"/><path d="M5.469,4.413l-1.117,-2.444c-0.683,0.011 -1.352,0.412 -2.002,1.407l2.158,1.868l0.961,-0.831Z" style="fill:#966e3d;"/><path d="M9.425,17.783c0,0 -3.542,-1.296 -5.343,-2.146c-2.139,-1.01 -3.923,-1.963 -3.923,-1.963c0,0 2.564,-7.253 5.198,-9.618c0.573,-0.17 1.251,-0.308 1.887,-0.414c1.159,-0.194 2.181,-0.285 2.181,-0.285c0,0 0.981,0.096 1.919,0.245c0.699,0.111 1.476,0.262 2.123,0.454c2.635,2.365 5.199,9.618 5.199,9.618c0,0 -2.133,1.144 -4.531,2.254c-1.648,0.762 -4.71,1.855 -4.71,1.855Z" style="fill:#956839;"/><path d="M9.438,15.21c-0.005,-0.001 -3.197,-0.779 -4.55,-2.043c0.138,-0.508 0.605,-1.072 0.976,-1.461c0.292,-0.302 0.694,-0.473 1.115,-0.473l4.919,0c0.42,0 0.823,0.171 1.115,0.473c0.371,0.389 0.838,0.953 0.975,1.461c-1.353,1.264 -4.545,2.042 -4.55,2.043Z" style="fill:#f2d566;"/><path id="eye" d="M14.368,8.861c0,-0.318 -0.258,-0.575 -0.575,-0.575c-0.317,0 -0.575,0.257 -0.575,0.575l0,1.788c0,0.317 0.258,0.575 0.575,0.575c0.317,0 0.575,-0.258 0.575,-0.575l0,-1.788Z" style="fill:#42270f;"/><path d="M11.14,12.058c0.013,0.027 0.009,0.06 -0.01,0.084c-0.442,0.535 -0.987,0.92 -1.692,1.196l-0.016,-0.006c-0.696,-0.276 -1.237,-0.659 -1.675,-1.19c-0.02,-0.024 -0.024,-0.057 -0.011,-0.084c0.014,-0.028 0.041,-0.045 0.072,-0.045l3.261,0c0.03,0 0.058,0.017 0.071,0.045" style="fill:#42270f;"/><path id="eye1" serif:id="eye" d="M4.484,8.861c0,-0.318 0.258,-0.575 0.575,-0.575c0.317,0 0.575,0.257 0.575,0.575l0,1.788c0,0.317 -0.258,0.575 -0.575,0.575c-0.317,0 -0.575,-0.258 -0.575,-0.575l0,-1.788Z" style="fill:#42270f;"/></g><g transform="matrix(1.48254,0,0,1.48254,-121.396,-72.9601)"><text x="96.337px" y="58.366px" style="font-family:'Montserrat-Medium', 'Montserrat';font-weight:500;font-size:7px;fill:#b3aeac;">G</text><text x="101.566px" y="58.366px" style="font-family:'Montserrat-Medium', 'Montserrat';font-weight:500;font-size:7px;fill:#b3aeac;">D</text><text x="106.827px" y="58.366px" style="font-family:'Montserrat-Medium', 'Montserrat';font-weight:500;font-size:7px;fill:#b3aeac;">Quest</text><text x="127.554px" y="58.366px" style="font-family:'Montserrat-Medium', 'Montserrat';font-weight:500;font-size:5.468px;fill:#b3aeac;">.com</text></g></g></svg>